<?xml version="1.0" encoding="UTF-8"?>
<svg version="1.1" xmlns="http://www.w3.org/2000/svg" width="782" height="782">
<path d="M0 0 C258.06 0 516.12 0 782 0 C782 258.06 782 516.12 782 782 C523.94 782 265.88 782 0 782 C0 523.94 0 265.88 0 0 Z " fill="#294546" transform="translate(0,0)"/>
<path d="M0 0 C2.36497439 1.86708505 3.66030715 3.32061431 5 6 C5.43075112 9.79060983 5.06236221 11.85968503 3.5 15.375 C0.88179165 18.12411877 0.53946765 18.44010244 -3 18.625 C-6.05865206 18.39716744 -6.91449732 18.06577129 -9.4375 16.125 C-12.05028531 12.57161198 -12.34646971 10.41748876 -12 6 C-9.06991825 0.00665097 -6.59045 -0.56814224 0 0 Z " fill="#324A4B" transform="translate(312,362)"/>
<path d="M0 0 C2.85272289 1.98450288 4.64267017 3.4588209 5.44921875 6.9375 C5.64809664 10.55844919 5.13707127 12.72585747 3.5 16 C0.47124441 18.42300447 -1.28794341 18.74957128 -5.09375 18.47265625 C-7 18 -7 18 -9.5 16.0625 C-11.51377083 11.95105123 -11.96424045 8.49419896 -11 4 C-7.79382821 0.13373402 -4.93752469 -0.92578588 0 0 Z " fill="#2E4747" transform="translate(437,362)"/>
<path d="M0 0 C1.58246707 -0.08153933 3.16616273 -0.13943557 4.75 -0.1875 C6.07257813 -0.23970703 6.07257813 -0.23970703 7.421875 -0.29296875 C10.44671583 0.05076316 11.75583602 1.00227459 14 3 C13.835 3.61875 13.67 4.2375 13.5 4.875 C12.92365356 6.96063386 12.92365356 6.96063386 13 9 C13.66 9.66 14.32 10.32 15 11 C14.67028521 14.29714793 14.3773161 15.6226839 12 18 C9.1796875 18.1953125 9.1796875 18.1953125 5.875 18.125 C4.77929688 18.10695313 3.68359375 18.08890625 2.5546875 18.0703125 C1.71164062 18.04710937 0.86859375 18.02390625 0 18 C0.66 17.67 1.32 17.34 2 17 C1.85941524 14.54126232 1.71277001 12.08314825 1.5625 9.625 C1.52318359 8.92632812 1.48386719 8.22765625 1.44335938 7.5078125 C1.25719866 3.62639508 1.25719866 3.62639508 0 0 Z " fill="#B9C6C7" transform="translate(447,362)"/>
<path d="M0 0 C10.625 -0.25 10.625 -0.25 14 2 C14.42905061 5.94726562 14.08466413 8.61242079 12 12 C13.98 14.97 13.98 14.97 16 18 C14.68 18 13.36 18 12 18 C11.4225 16.865625 10.845 15.73125 10.25 14.5625 C8.64507365 11.62689703 8.64507365 11.62689703 5.75 10.0625 C5.1725 10.041875 4.595 10.02125 4 10 C4 12.31 4 14.62 4 17 C4.66 17.33 5.32 17.66 6 18 C4.02 18 2.04 18 0 18 C0 12.06 0 6.12 0 0 Z " fill="#B7C4C5" transform="translate(322,362)"/>
<path d="M0 0 C3.96 0 7.92 0 12 0 C12.33 1.32 12.66 2.64 13 4 C8.545 3.01 8.545 3.01 4 2 C4 3.98 4 5.96 4 8 C5.65 8 7.3 8 9 8 C9 8.66 9 9.32 9 10 C7.35 10 5.7 10 4 10 C4 11.98 4 13.96 4 16 C8.455 15.505 8.455 15.505 13 15 C13 15.99 13 16.98 13 18 C8.38 18 3.76 18 -1 18 C-0.34 17.67 0.32 17.34 1 17 C0.67 11.39 0.34 5.78 0 0 Z " fill="#BCC7C9" transform="translate(487,362)"/>
<path d="M0 0 C2.85272289 1.98450288 4.64267017 3.4588209 5.44921875 6.9375 C5.64809664 10.55844919 5.13707127 12.72585747 3.5 16 C0.47124441 18.42300447 -1.28794341 18.74957128 -5.09375 18.47265625 C-7 18 -7 18 -9.5 16.0625 C-11.51377083 11.95105123 -11.96424045 8.49419896 -11 4 C-7.79382821 0.13373402 -4.93752469 -0.92578588 0 0 Z M-6.7265625 2.1875 C-8.39851629 4.56721337 -8.40079587 6.110863 -8.375 9 C-8.38273437 9.86625 -8.39046875 10.7325 -8.3984375 11.625 C-7.92738788 14.43282517 -7.26558052 15.32379484 -5 17 C-2.45741537 17.50014953 -2.45741537 17.50014953 0 17 C2.14553377 13.78169935 2.29583868 12.73213493 2.3125 9 C2.32925781 8.13375 2.34601563 7.2675 2.36328125 6.375 C2.17396508 3.96341042 2.17396508 3.96341042 0.73046875 2.1875 C-1.89799061 0.38377168 -4.09895018 0.38027343 -6.7265625 2.1875 Z " fill="#C4D2D3" transform="translate(437,362)"/>
<path d="M0 0 C1.65 0 3.3 0 5 0 C4.67 5.94 4.34 11.88 4 18 C3.34 18 2.68 18 2 18 C0.36860063 16.07412421 -1.13723225 14.15673283 -2.625 12.125 C-3.04523438 11.56941406 -3.46546875 11.01382812 -3.8984375 10.44140625 C-7 6.26235288 -7 6.26235288 -7 4 C-7.66 4 -8.32 4 -9 4 C-9 8.29 -9 12.58 -9 17 C-8.34 17.33 -7.68 17.66 -7 18 C-8.65 18 -10.3 18 -12 18 C-11.34 17.67 -10.68 17.34 -10 17 C-10 11.72 -10 6.44 -10 1 C-5.4467788 2.1383053 -4.91490488 2.92387988 -2.25 6.5625 C-1.63640625 7.38878906 -1.0228125 8.21507812 -0.390625 9.06640625 C0.06828125 9.70449219 0.5271875 10.34257812 1 11 C1.0270043 9.54176788 1.04639787 8.08339325 1.0625 6.625 C1.07410156 5.81289063 1.08570313 5.00078125 1.09765625 4.1640625 C1.14466334 1.95062858 1.14466334 1.95062858 0 0 Z " fill="#DBE7E9" transform="translate(415,362)"/>
<path d="M0 0 C2.36497439 1.86708505 3.66030715 3.32061431 5 6 C5.43075112 9.79060983 5.06236221 11.85968503 3.5 15.375 C0.88179165 18.12411877 0.53946765 18.44010244 -3 18.625 C-6.05865206 18.39716744 -6.91449732 18.06577129 -9.4375 16.125 C-12.05028531 12.57161198 -12.34646971 10.41748876 -12 6 C-9.06991825 0.00665097 -6.59045 -0.56814224 0 0 Z M-7.75 2.5 C-9.51985517 6.03971035 -9.58127724 9.11420148 -9 13 C-7.99963019 15.56008963 -7.99963019 15.56008963 -6 17 C-3.5 17.66666667 -3.5 17.66666667 -1 17 C1.14223357 15.22711704 1.86058039 13.82971673 2.3203125 11.09375 C2.52530607 7.43119825 2.39430786 5.56329694 0.25 2.5 C-2.7281587 0.51456087 -4.90807471 0.06406403 -7.75 2.5 Z " fill="#C8D3D5" transform="translate(312,362)"/>
<path d="M0 0 C4.62 0 9.24 0 14 0 C14.33 1.32 14.66 2.64 15 4 C13.02 3.34 11.04 2.68 9 2 C9.33 7.28 9.66 12.56 10 18 C8.02 18 6.04 18 4 18 C4.33 12.72 4.66 7.44 5 2 C3.02 2.66 1.04 3.32 -1 4 C-0.67 2.68 -0.34 1.36 0 0 Z " fill="#829293" transform="translate(343,362)"/>
<path d="M0 0 C3.96 0 7.92 0 12 0 C12.33 1.32 12.66 2.64 13 4 C8.545 3.01 8.545 3.01 4 2 C4 4.31 4 6.62 4 9 C5.98 9 7.96 9 10 9 C10 9.33 10 9.66 10 10 C8.02 10 6.04 10 4 10 C4.33 12.64 4.66 15.28 5 18 C3.35 18 1.7 18 0 18 C0 12.06 0 6.12 0 0 Z " fill="#D4DEDF" transform="translate(283,362)"/>
<path d="M0 0 C1.98 0 3.96 0 6 0 C5.67 0.66 5.34 1.32 5 2 C4.76827173 4.54615009 4.58105471 7.07396225 4.4375 9.625 C4.39431641 10.33140625 4.35113281 11.0378125 4.30664062 11.765625 C4.20055249 13.51018537 4.09977111 15.25506697 4 17 C6.31 17 8.62 17 11 17 C11.33 16.01 11.66 15.02 12 14 C12.33 15.32 12.66 16.64 13 18 C8.71 18 4.42 18 0 18 C0 12.06 0 6.12 0 0 Z " fill="#ADBBBD" transform="translate(468,362)"/>
<path d="M0 0 C3 0.1875 3 0.1875 5 1.1875 C4.67 1.8475 4.34 2.5075 4 3.1875 C1.69 2.8575 -0.62 2.5275 -3 2.1875 C-2.96044102 4.11059422 -2.96044102 4.11059422 -2 6.1875 C0.91666667 7.85416667 0.91666667 7.85416667 4 9.1875 C6 11.1875 6 11.1875 6.125 13.8125 C6.08375 14.59625 6.0425 15.38 6 16.1875 C5.01 16.1875 4.02 16.1875 3 16.1875 C2.938125 15.0428125 2.938125 15.0428125 2.875 13.875 C2.22768648 10.87443937 2.22768648 10.87443937 -1 9.4375 C-1.99 9.025 -2.98 8.6125 -4 8.1875 C-5 7.1875 -5 7.1875 -5.1875 4.75 C-4.90256398 0.85587437 -3.82219166 0.23888698 0 0 Z " fill="#CFDCDD" transform="translate(381,361.8125)"/>
<path d="M0 0 C2.33294775 -0.04241723 4.66702567 -0.04092937 7 0 C8 1 8 1 8.0625 3.5625 C8.041875 4.366875 8.02125 5.17125 8 6 C5.29120665 7.35439668 2.99066732 7.06501451 0 7 C0 4.69 0 2.38 0 0 Z " fill="#344B4B" transform="translate(326,364)"/>
<path d="M0 0 C1.99954746 -0.04254356 4.00041636 -0.04080783 6 0 C7 1 7 1 7.0625 3.5625 C7.041875 4.366875 7.02125 5.17125 7 6 C4.69 6.33 2.38 6.66 0 7 C0 4.69 0 2.38 0 0 Z " fill="#2F4646" transform="translate(452,372)"/>
<path d="M0 0 C1.32 0.66 2.64 1.32 4 2 C3.835 2.61875 3.67 3.2375 3.5 3.875 C2.92365356 5.96063386 2.92365356 5.96063386 3 8 C3.66 8.66 4.32 9.32 5 10 C4.625 12.625 4.625 12.625 4 15 C3.01 15 2.02 15 1 15 C1.04125 14.236875 1.0825 13.47375 1.125 12.6875 C1.22080824 9.77281584 1.22080824 9.77281584 -1 7 C-0.67 6.67 -0.34 6.34 0 6 C0.04080783 4.00041636 0.04254356 1.99954746 0 0 Z " fill="#DDE6E7" transform="translate(457,363)"/>
<path d="M0 0 C0.66 0 1.32 0 2 0 C2 5.28 2 10.56 2 16 C2.66 16.33 3.32 16.66 4 17 C2.02 17 0.04 17 -2 17 C-1.67 16.34 -1.34 15.68 -1 15 C-0.76827173 12.45384991 -0.58105471 9.92603775 -0.4375 7.375 C-0.39431641 6.66859375 -0.35113281 5.9621875 -0.30664062 5.234375 C-0.20055249 3.48981463 -0.09977111 1.74493303 0 0 Z " fill="#E4EDED" transform="translate(324,363)"/>
<path d="M0 0 C0.66 0 1.32 0 2 0 C2.06058594 1.05960937 2.12117188 2.11921875 2.18359375 3.2109375 C2.26800127 4.59897221 2.35264917 5.98699232 2.4375 7.375 C2.47681641 8.07367188 2.51613281 8.77234375 2.55664062 9.4921875 C2.74280134 13.37360492 2.74280134 13.37360492 4 17 C2.02 17 0.04 17 -2 17 C-1.34 16.67 -0.68 16.34 0 16 C0 10.72 0 5.44 0 0 Z " fill="#EBF5F5" transform="translate(349,363)"/>
<path d="M0 0 C0.66 0 1.32 0 2 0 C2.33 5.61 2.66 11.22 3 17 C1.35 17 -0.3 17 -2 17 C-1.67 16.34 -1.34 15.68 -1 15 C-0.76827173 12.45384991 -0.58105471 9.92603775 -0.4375 7.375 C-0.39431641 6.66859375 -0.35113281 5.9621875 -0.30664062 5.234375 C-0.20055249 3.48981463 -0.09977111 1.74493303 0 0 Z " fill="#E1EDED" transform="translate(365,363)"/>
<path d="M0 0 C1.65 0 3.3 0 5 0 C4.67 5.94 4.34 11.88 4 18 C3.34 17.67 2.68 17.34 2 17 C2.33 15.68 2.66 14.36 3 13 C2.34 12.67 1.68 12.34 1 12 C1.01160156 11.30132812 1.02320313 10.60265625 1.03515625 9.8828125 C1.04417969 8.97273438 1.05320312 8.06265625 1.0625 7.125 C1.07410156 6.22007812 1.08570313 5.31515625 1.09765625 4.3828125 C1.16249257 1.9831415 1.16249257 1.9831415 0 0 Z " fill="#95A6A7" transform="translate(415,362)"/>
<path d="M0 0 C1.98 0 3.96 0 6 0 C6.042721 1.66611905 6.04063832 3.33382885 6 5 C5 6 5 6 2.4375 6.0625 C1.2309375 6.0315625 1.2309375 6.0315625 0 6 C0 4.02 0 2.04 0 0 Z " fill="#2D4545" transform="translate(452,364)"/>
<path d="M0 0 C-2.35953094 2.35953094 -3.77895617 2.49141413 -7 3 C-7.10957031 3.56589844 -7.21914063 4.13179688 -7.33203125 4.71484375 C-7.49058594 5.44832031 -7.64914062 6.18179687 -7.8125 6.9375 C-7.96332031 7.66839844 -8.11414063 8.39929688 -8.26953125 9.15234375 C-8.51058594 9.76207031 -8.75164062 10.37179687 -9 11 C-9.99 11.33 -10.98 11.66 -12 12 C-12.32469403 7.34605219 -11.79790518 4.76641082 -9 1 C-6.04335481 -0.4783226 -3.25770263 -0.06032783 0 0 Z " fill="#C5D1D2" transform="translate(312,362)"/>
<path d="M0 0 C3.96 0 7.92 0 12 0 C12.33 1.32 12.66 2.64 13 4 C12.31292969 3.855625 11.62585938 3.71125 10.91796875 3.5625 C10.01691406 3.376875 9.11585938 3.19125 8.1875 3 C7.29417969 2.814375 6.40085937 2.62875 5.48046875 2.4375 C2.92739307 1.91315157 2.92739307 1.91315157 0 2 C0 1.34 0 0.68 0 0 Z " fill="#9CADAE" transform="translate(487,362)"/>
<path d="M0 0 C0.268125 0.556875 0.53625 1.11375 0.8125 1.6875 C1.4003125 2.8321875 1.4003125 2.8321875 2 4 C2.433125 4.886875 2.86625 5.77375 3.3125 6.6875 C4.81912683 9.23992223 4.81912683 9.23992223 7.6875 9.8125 C8.450625 9.874375 9.21375 9.93625 10 10 C10 10.33 10 10.66 10 11 C6.50355037 11.31785906 4.602598 11.39644605 1.625 9.4375 C-0.54455002 6.18317497 -0.29451507 3.82869586 0 0 Z " fill="#E1ECED" transform="translate(301,369)"/>
<path d="M0 0 C1.98 0 3.96 0 6 0 C5.67 0.66 5.34 1.32 5 2 C4.34 2 3.68 2 3 2 C3 6.95 3 11.9 3 17 C2.67 17 2.34 17 2 17 C1.93941406 15.94039063 1.87882812 14.88078125 1.81640625 13.7890625 C1.73199873 12.40102779 1.64735083 11.01300768 1.5625 9.625 C1.52318359 8.92632812 1.48386719 8.22765625 1.44335938 7.5078125 C1.25719866 3.62639508 1.25719866 3.62639508 0 0 Z " fill="#D9E4E4" transform="translate(468,362)"/>
<path d="M0 0 C3 1 3 1 4 3 C4.13415472 5.6723621 4.04318541 8.32250488 4 11 C3.01 11.495 3.01 11.495 2 12 C1.34 8.04 0.68 4.08 0 0 Z " fill="#E7EFF0" transform="translate(438,364)"/>
<path d="M0 0 C0.33 0 0.66 0 1 0 C1.24954005 1.43410368 1.47392642 2.87260072 1.6875 4.3125 C1.81511719 5.11300781 1.94273437 5.91351563 2.07421875 6.73828125 C2 9 2 9 0.78125 10.78125 C-2.33872824 12.91597195 -5.31384576 12.18128627 -9 12 C-8.34 11.34 -7.68 10.68 -7 10 C-5.35 10 -3.7 10 -2 10 C-1.34 6.7 -0.68 3.4 0 0 Z " fill="#BDCDCE" transform="translate(439,368)"/>
<path d="M0 0 C3.96 0 7.92 0 12 0 C12.33 1.32 12.66 2.64 13 4 C8.71 3.01 4.42 2.02 0 1 C0 0.67 0 0.34 0 0 Z " fill="#9AABAE" transform="translate(283,362)"/>
<path d="M0 0 C0.33 0 0.66 0 1 0 C1.13277344 0.61488281 1.26554687 1.22976563 1.40234375 1.86328125 C1.57894531 2.67152344 1.75554687 3.47976563 1.9375 4.3125 C2.19853516 5.51326172 2.19853516 5.51326172 2.46484375 6.73828125 C2.99886159 9.145401 2.99886159 9.145401 4 12 C2.68 11.34 1.36 10.68 0 10 C0 6.7 0 3.4 0 0 Z " fill="#F0F8F9" transform="translate(427,367)"/>
<path d="M0 0 C1.65 0 3.3 0 5 0 C4.67 0.66 4.34 1.32 4 2 C3.77377919 3.70363822 3.59111527 5.41328701 3.4375 7.125 C3.31181641 8.49011719 3.31181641 8.49011719 3.18359375 9.8828125 C3.12300781 10.58148438 3.06242187 11.28015625 3 12 C2.67 12 2.34 12 2 12 C1.93941406 11.30132812 1.87882812 10.60265625 1.81640625 9.8828125 C1.73261719 8.97273438 1.64882813 8.06265625 1.5625 7.125 C1.48128906 6.22007812 1.40007812 5.31515625 1.31640625 4.3828125 C1.13010715 1.98889139 1.13010715 1.98889139 0 0 Z " fill="#A0B3B3" transform="translate(415,362)"/>
<path d="M0 0 C1.9375 0.375 1.9375 0.375 4 1 C5.35439668 3.70879335 5.06501451 6.00933268 5 9 C3.05731159 6.08596738 1.53604696 3.14191424 0 0 Z " fill="#E8F3F4" transform="translate(311,363)"/>
</svg>
